<mxfile host="app.diagrams.net" modified="2021-07-08T14:34:40.569Z" agent="5.0 (Windows NT 10.0; Win64; x64) AppleWebKit/537.36 (KHTML, like Gecko) Chrome/91.0.4472.124 Safari/537.36" etag="fONes1wLVwpHwSLJDk1r" version="14.8.0" type="github">
  <diagram id="Th0a5vP6YgecYewDXPHj" name="Page-1">
    <mxGraphModel dx="429" dy="857" grid="1" gridSize="10" guides="1" tooltips="1" connect="1" arrows="1" fold="1" page="1" pageScale="1" pageWidth="3000" pageHeight="1000" math="0" shadow="0">
      <root>
        <mxCell id="0" />
        <mxCell id="1" parent="0" />
        <mxCell id="yviWZjRApHMC7-MWaQR3-1" value="User" style="rounded=1;whiteSpace=wrap;html=1;fillColor=#fff2cc;strokeColor=#d6b656;" vertex="1" parent="1">
          <mxGeometry x="130" y="240" width="100" height="40" as="geometry" />
        </mxCell>
        <mxCell id="yviWZjRApHMC7-MWaQR3-2" value="Client" style="rounded=1;whiteSpace=wrap;html=1;fillColor=#ffe6cc;strokeColor=#d79b00;" vertex="1" parent="1">
          <mxGeometry x="270" y="240" width="100" height="40" as="geometry" />
        </mxCell>
        <mxCell id="yviWZjRApHMC7-MWaQR3-3" value="Authorization Server" style="rounded=1;whiteSpace=wrap;html=1;fillColor=#d5e8d4;strokeColor=#82b366;" vertex="1" parent="1">
          <mxGeometry x="410" y="240" width="120" height="40" as="geometry" />
        </mxCell>
        <mxCell id="yviWZjRApHMC7-MWaQR3-4" value="Resource Server" style="rounded=1;whiteSpace=wrap;html=1;fillColor=#d5e8d4;strokeColor=#82b366;" vertex="1" parent="1">
          <mxGeometry x="570" y="240" width="120" height="40" as="geometry" />
        </mxCell>
        <mxCell id="yviWZjRApHMC7-MWaQR3-5" value="" style="endArrow=classic;html=1;exitX=0.5;exitY=1;exitDx=0;exitDy=0;entryX=0.5;entryY=1;entryDx=0;entryDy=0;" edge="1" parent="1" source="yviWZjRApHMC7-MWaQR3-1" target="yviWZjRApHMC7-MWaQR3-2">
          <mxGeometry relative="1" as="geometry">
            <mxPoint x="180" y="330" as="sourcePoint" />
            <mxPoint x="280" y="330" as="targetPoint" />
            <Array as="points">
              <mxPoint x="180" y="330" />
              <mxPoint x="320" y="330" />
            </Array>
          </mxGeometry>
        </mxCell>
        <mxCell id="yviWZjRApHMC7-MWaQR3-6" value="1. 서비스 접근 및 이용" style="edgeLabel;resizable=0;html=1;align=center;verticalAlign=middle;" connectable="0" vertex="1" parent="yviWZjRApHMC7-MWaQR3-5">
          <mxGeometry relative="1" as="geometry" />
        </mxCell>
        <mxCell id="yviWZjRApHMC7-MWaQR3-7" value="" style="endArrow=classic;html=1;entryX=0.5;entryY=1;entryDx=0;entryDy=0;" edge="1" parent="1">
          <mxGeometry relative="1" as="geometry">
            <mxPoint x="320" y="340" as="sourcePoint" />
            <mxPoint x="180" y="340" as="targetPoint" />
            <Array as="points">
              <mxPoint x="320" y="370" />
              <mxPoint x="180" y="370" />
            </Array>
          </mxGeometry>
        </mxCell>
        <mxCell id="yviWZjRApHMC7-MWaQR3-8" value="2. Client ID, Redirect URI" style="edgeLabel;resizable=0;html=1;align=center;verticalAlign=middle;" connectable="0" vertex="1" parent="yviWZjRApHMC7-MWaQR3-7">
          <mxGeometry relative="1" as="geometry" />
        </mxCell>
        <mxCell id="yviWZjRApHMC7-MWaQR3-9" value="" style="endArrow=classic;html=1;exitX=0.5;exitY=1;exitDx=0;exitDy=0;entryX=0.5;entryY=1;entryDx=0;entryDy=0;" edge="1" parent="1" target="yviWZjRApHMC7-MWaQR3-3">
          <mxGeometry relative="1" as="geometry">
            <mxPoint x="180" y="380" as="sourcePoint" />
            <mxPoint x="320" y="380" as="targetPoint" />
            <Array as="points">
              <mxPoint x="180" y="400" />
              <mxPoint x="470" y="400" />
            </Array>
          </mxGeometry>
        </mxCell>
        <mxCell id="yviWZjRApHMC7-MWaQR3-10" value="3. 로그인 페이지 요청" style="edgeLabel;resizable=0;html=1;align=center;verticalAlign=middle;labelBackgroundColor=#ffffff;" connectable="0" vertex="1" parent="yviWZjRApHMC7-MWaQR3-9">
          <mxGeometry relative="1" as="geometry" />
        </mxCell>
        <mxCell id="yviWZjRApHMC7-MWaQR3-12" value="" style="endArrow=classic;html=1;entryX=0.5;entryY=1;entryDx=0;entryDy=0;" edge="1" parent="1">
          <mxGeometry relative="1" as="geometry">
            <mxPoint x="470" y="410" as="sourcePoint" />
            <mxPoint x="180" y="410" as="targetPoint" />
            <Array as="points">
              <mxPoint x="470" y="440" />
              <mxPoint x="180" y="440" />
            </Array>
          </mxGeometry>
        </mxCell>
        <mxCell id="yviWZjRApHMC7-MWaQR3-13" value="4. 로그인 페이지 제공" style="edgeLabel;resizable=0;html=1;align=center;verticalAlign=middle;" connectable="0" vertex="1" parent="yviWZjRApHMC7-MWaQR3-12">
          <mxGeometry relative="1" as="geometry" />
        </mxCell>
        <mxCell id="yviWZjRApHMC7-MWaQR3-21" value="" style="endArrow=classic;html=1;exitX=0.5;exitY=1;exitDx=0;exitDy=0;" edge="1" parent="1">
          <mxGeometry relative="1" as="geometry">
            <mxPoint x="180" y="450" as="sourcePoint" />
            <mxPoint x="470" y="450" as="targetPoint" />
            <Array as="points">
              <mxPoint x="180" y="480" />
              <mxPoint x="470" y="480" />
            </Array>
          </mxGeometry>
        </mxCell>
        <mxCell id="yviWZjRApHMC7-MWaQR3-22" value="5.해당 서비스의 ID / PW 입력" style="edgeLabel;resizable=0;html=1;align=center;verticalAlign=middle;" connectable="0" vertex="1" parent="yviWZjRApHMC7-MWaQR3-21">
          <mxGeometry relative="1" as="geometry" />
        </mxCell>
        <mxCell id="yviWZjRApHMC7-MWaQR3-23" value="" style="endArrow=classic;html=1;entryX=0.5;entryY=1;entryDx=0;entryDy=0;" edge="1" parent="1">
          <mxGeometry relative="1" as="geometry">
            <mxPoint x="470" y="485" as="sourcePoint" />
            <mxPoint x="180" y="485" as="targetPoint" />
            <Array as="points">
              <mxPoint x="470" y="515" />
              <mxPoint x="180" y="515" />
            </Array>
          </mxGeometry>
        </mxCell>
        <mxCell id="yviWZjRApHMC7-MWaQR3-24" value="6. 인증코드 발급" style="edgeLabel;resizable=0;html=1;align=center;verticalAlign=middle;" connectable="0" vertex="1" parent="yviWZjRApHMC7-MWaQR3-23">
          <mxGeometry relative="1" as="geometry" />
        </mxCell>
        <mxCell id="yviWZjRApHMC7-MWaQR3-25" value="" style="endArrow=classic;html=1;exitX=0.5;exitY=1;exitDx=0;exitDy=0;entryX=0.5;entryY=1;entryDx=0;entryDy=0;" edge="1" parent="1">
          <mxGeometry relative="1" as="geometry">
            <mxPoint x="180" y="520" as="sourcePoint" />
            <mxPoint x="320" y="520" as="targetPoint" />
            <Array as="points">
              <mxPoint x="180" y="550" />
              <mxPoint x="320" y="550" />
            </Array>
          </mxGeometry>
        </mxCell>
        <mxCell id="yviWZjRApHMC7-MWaQR3-26" value="7. Redirect URI 로 인증코드 전달" style="edgeLabel;resizable=0;html=1;align=center;verticalAlign=middle;" connectable="0" vertex="1" parent="yviWZjRApHMC7-MWaQR3-25">
          <mxGeometry relative="1" as="geometry" />
        </mxCell>
        <mxCell id="yviWZjRApHMC7-MWaQR3-30" value="" style="endArrow=classic;html=1;exitX=0.5;exitY=1;exitDx=0;exitDy=0;" edge="1" parent="1">
          <mxGeometry relative="1" as="geometry">
            <mxPoint x="320" y="560" as="sourcePoint" />
            <mxPoint x="470" y="560" as="targetPoint" />
            <Array as="points">
              <mxPoint x="320" y="590" />
              <mxPoint x="470" y="590" />
            </Array>
          </mxGeometry>
        </mxCell>
        <mxCell id="yviWZjRApHMC7-MWaQR3-31" value="8. 인증토큰으로 Access Token 요청" style="edgeLabel;resizable=0;html=1;align=center;verticalAlign=middle;" connectable="0" vertex="1" parent="yviWZjRApHMC7-MWaQR3-30">
          <mxGeometry relative="1" as="geometry" />
        </mxCell>
        <mxCell id="yviWZjRApHMC7-MWaQR3-34" value="" style="endArrow=classic;html=1;" edge="1" parent="1">
          <mxGeometry relative="1" as="geometry">
            <mxPoint x="470" y="600" as="sourcePoint" />
            <mxPoint x="320" y="600" as="targetPoint" />
            <Array as="points">
              <mxPoint x="470" y="630" />
              <mxPoint x="320" y="630" />
            </Array>
          </mxGeometry>
        </mxCell>
        <mxCell id="yviWZjRApHMC7-MWaQR3-35" value="9. Access Token 발급" style="edgeLabel;resizable=0;html=1;align=center;verticalAlign=middle;" connectable="0" vertex="1" parent="yviWZjRApHMC7-MWaQR3-34">
          <mxGeometry relative="1" as="geometry" />
        </mxCell>
        <mxCell id="yviWZjRApHMC7-MWaQR3-36" value="" style="endArrow=classic;html=1;" edge="1" parent="1">
          <mxGeometry relative="1" as="geometry">
            <mxPoint x="320" y="640" as="sourcePoint" />
            <mxPoint x="180" y="640" as="targetPoint" />
            <Array as="points">
              <mxPoint x="320" y="670" />
              <mxPoint x="180" y="670" />
            </Array>
          </mxGeometry>
        </mxCell>
        <mxCell id="yviWZjRApHMC7-MWaQR3-37" value="10. 인증 및 로그인 성공" style="edgeLabel;resizable=0;html=1;align=center;verticalAlign=middle;" connectable="0" vertex="1" parent="yviWZjRApHMC7-MWaQR3-36">
          <mxGeometry relative="1" as="geometry" />
        </mxCell>
        <mxCell id="yviWZjRApHMC7-MWaQR3-38" value="" style="endArrow=classic;html=1;exitX=0.5;exitY=1;exitDx=0;exitDy=0;entryX=0.5;entryY=1;entryDx=0;entryDy=0;" edge="1" parent="1">
          <mxGeometry relative="1" as="geometry">
            <mxPoint x="180" y="680" as="sourcePoint" />
            <mxPoint x="320" y="680" as="targetPoint" />
            <Array as="points">
              <mxPoint x="180" y="710" />
              <mxPoint x="320" y="710" />
            </Array>
          </mxGeometry>
        </mxCell>
        <mxCell id="yviWZjRApHMC7-MWaQR3-39" value="11. 서비스 요청" style="edgeLabel;resizable=0;html=1;align=center;verticalAlign=middle;" connectable="0" vertex="1" parent="yviWZjRApHMC7-MWaQR3-38">
          <mxGeometry relative="1" as="geometry" />
        </mxCell>
        <mxCell id="yviWZjRApHMC7-MWaQR3-41" value="" style="endArrow=classic;html=1;exitX=0.5;exitY=1;exitDx=0;exitDy=0;entryX=0.5;entryY=1;entryDx=0;entryDy=0;" edge="1" parent="1" target="yviWZjRApHMC7-MWaQR3-4">
          <mxGeometry relative="1" as="geometry">
            <mxPoint x="320" y="720" as="sourcePoint" />
            <mxPoint x="460" y="720" as="targetPoint" />
            <Array as="points">
              <mxPoint x="320" y="750" />
              <mxPoint x="630" y="750" />
            </Array>
          </mxGeometry>
        </mxCell>
        <mxCell id="yviWZjRApHMC7-MWaQR3-42" value="12. Access Token으로 API 호출" style="edgeLabel;resizable=0;html=1;align=center;verticalAlign=middle;" connectable="0" vertex="1" parent="yviWZjRApHMC7-MWaQR3-41">
          <mxGeometry relative="1" as="geometry" />
        </mxCell>
        <mxCell id="yviWZjRApHMC7-MWaQR3-44" value="" style="endArrow=classic;html=1;" edge="1" parent="1">
          <mxGeometry relative="1" as="geometry">
            <mxPoint x="630" y="760" as="sourcePoint" />
            <mxPoint x="320" y="760" as="targetPoint" />
            <Array as="points">
              <mxPoint x="630" y="790" />
              <mxPoint x="320" y="790" />
            </Array>
          </mxGeometry>
        </mxCell>
        <mxCell id="yviWZjRApHMC7-MWaQR3-45" value="13. 인증코드 검증 및 서비스 제공" style="edgeLabel;resizable=0;html=1;align=center;verticalAlign=middle;" connectable="0" vertex="1" parent="yviWZjRApHMC7-MWaQR3-44">
          <mxGeometry relative="1" as="geometry" />
        </mxCell>
        <mxCell id="yviWZjRApHMC7-MWaQR3-46" value="" style="endArrow=classic;html=1;" edge="1" parent="1">
          <mxGeometry relative="1" as="geometry">
            <mxPoint x="320" y="800" as="sourcePoint" />
            <mxPoint x="180" y="800" as="targetPoint" />
            <Array as="points">
              <mxPoint x="320" y="830" />
              <mxPoint x="180" y="830" />
            </Array>
          </mxGeometry>
        </mxCell>
        <mxCell id="yviWZjRApHMC7-MWaQR3-47" value="14. 서비스 제공" style="edgeLabel;resizable=0;html=1;align=center;verticalAlign=middle;" connectable="0" vertex="1" parent="yviWZjRApHMC7-MWaQR3-46">
          <mxGeometry relative="1" as="geometry" />
        </mxCell>
        <mxCell id="yviWZjRApHMC7-MWaQR3-48" value="Oauth 2" style="swimlane;labelBackgroundColor=#ffffff;" vertex="1" parent="1">
          <mxGeometry x="110" y="190" width="610" height="670" as="geometry" />
        </mxCell>
      </root>
    </mxGraphModel>
  </diagram>
</mxfile>
